<svg width="35" height="35" viewBox="0 0 35 35" fill="none" xmlns="http://www.w3.org/2000/svg">
<g id="carbon:recommend">
<path id="Vector" d="M17.9797 3C16.1611 3.0041 14.3863 3.55908 12.8893 4.59183C11.3923 5.62457 10.2433 7.08662 9.59369 8.78533C8.94409 10.484 8.82437 12.3397 9.25031 14.1078C9.67624 15.8759 10.6278 17.4735 11.9797 18.69V31L17.9797 27L23.9797 31V18.69C25.3316 17.4735 26.2832 15.8759 26.7092 14.1078C27.1351 12.3397 27.0154 10.484 26.3658 8.78533C25.7162 7.08662 24.5672 5.62457 23.0702 4.59183C21.5732 3.55908 19.7984 3.0041 17.9797 3ZM21.9797 27.26L19.0897 25.34L17.9797 24.6L16.8697 25.34L13.9797 27.26V20.05C15.2202 20.6759 16.5903 21.0019 17.9797 21.0019C19.3692 21.0019 20.7392 20.6759 21.9797 20.05V27.26ZM22.8697 17C21.7132 18.1291 20.2017 18.8232 18.5916 18.9644C16.9815 19.1057 15.3722 18.6854 14.0367 17.775C12.7013 16.8646 11.722 15.5201 11.2652 13.9697C10.8083 12.4194 10.9021 10.7587 11.5305 9.26962C12.1589 7.78053 13.2832 6.55477 14.7126 5.80041C16.1421 5.04606 17.7885 4.80959 19.3724 5.13115C20.9564 5.45271 22.3802 6.31249 23.4023 7.56454C24.4244 8.81658 24.9818 10.3837 24.9797 12C24.9786 12.9319 24.7913 13.8542 24.429 14.7128C24.0667 15.5714 23.5366 16.349 22.8697 17Z" fill="black"/>
</g>
</svg>


